# xmcd CD database file
#
# Track frame offsets:
#	150
#	16533
#	30625
#	51557
#	69073
#	87296
#	105559
#	134884
#	155459
#	174065
#	189860
#	212812
#	227098
#	241799
#	257885
#
# Disc length: 3762 seconds
#
# Revision: 0
# Processed by: cddbd v1.5.2PL0 Copyright (c) Steve Scherf et al.
# Submitted via: CDex 1.51
#
DISCID=bb0eb00f
DTITLE=Gaspo Harmonica e Oly Jr - Onde Está o Meu Dinheiro
DYEAR=2006
DGENRE=Blues
TTITLE0=Beber eu Sei
TTITLE1=É Só Você
TTITLE2=Tem Que Saber
TTITLE3=Capitalismo Animal
TTITLE4=Adeus Amor Adeus Querida
TTITLE5=Era Só o Que Me Faltava
TTITLE6=Divagar Blues
TTITLE7=Onde Está o Meu Dinheiro
TTITLE8=Dizem Que o Brasil Está na Pior
TTITLE9=Uma Canção Folk
TTITLE10=Eu Preciso
TTITLE11=Eu Perdi Minha Menina
TTITLE12=Eu Gostava Mais
TTITLE13=Bicho do Mato
TTITLE14=Atacama Blues
EXTD=YEAR: 2006
EXTT0=
EXTT1=
EXTT2=
EXTT3=
EXTT4=
EXTT5=
EXTT6=
EXTT7=
EXTT8=
EXTT9=
EXTT10=
EXTT11=
EXTT12=
EXTT13=
EXTT14=
PLAYORDER=
